<svg preserveAspectRatio="none" width="100%" height="100%" overflow="visible" style="display: block;" viewBox="0 0 35.0001 21.2769" fill="none" xmlns="http://www.w3.org/2000/svg">
<g id="visa">
<path id="Rectangle Copy 4" fill-rule="evenodd" clip-rule="evenodd" d="M1.22261e-06 2C1.22261e-06 0.89543 0.895432 0 2 0H33C34.1046 0 35 0.895431 35 2V19C35 20.1046 34.1046 21 33 21H2C0.895432 21 1.22261e-06 20.1046 1.22261e-06 19V2Z" fill="var(--fill-0, white)"/>
<path id="Fill 2" fill-rule="evenodd" clip-rule="evenodd" d="M21.384 8.22465C21.0445 8.11622 20.5126 8 19.8482 8C18.1551 8 16.9622 8.72559 16.9521 9.76551C16.9426 10.5343 17.8037 10.9632 18.4536 11.2191C19.1205 11.4812 19.3448 11.6485 19.3416 11.8826C19.3374 12.2412 18.809 12.4051 18.3164 12.4051C17.6306 12.4051 17.2663 12.3241 16.7035 12.1243L16.4827 12.0392L16.2422 13.2369C16.6425 13.3862 17.3825 13.5156 18.151 13.5223C19.9522 13.5223 21.1216 12.805 21.1349 11.6945C21.1413 11.0859 20.6848 10.6227 19.6962 10.2409C19.0973 9.99344 18.7305 9.82823 18.7343 9.57766C18.7343 9.35526 19.0448 9.1175 19.7156 9.1175C20.276 9.11012 20.6819 9.21404 20.9981 9.32247L21.1517 9.38416L21.384 8.22465" fill="var(--fill-0, #00579F)"/>
<path id="Fill 4" fill-rule="evenodd" clip-rule="evenodd" d="M23.6641 11.5466C23.8058 11.2384 24.3468 10.0511 24.3468 10.0511C24.3367 10.0653 24.4874 9.74137 24.574 9.5405L24.6899 10.0018C24.6899 10.0018 25.0179 11.2788 25.0864 11.5466H23.6641ZM25.778 8.09811H24.4539C24.0437 8.09811 23.7368 8.19332 23.5566 8.54177L21.0117 13.4448H22.811C22.811 13.4448 23.1054 12.7855 23.1718 12.6408C23.3685 12.6408 25.1165 12.643 25.3664 12.643C25.4177 12.8303 25.5748 13.4448 25.5748 13.4448H27.1648L25.778 8.09811V8.09811Z" fill="var(--fill-0, #00579F)"/>
<path id="Fill 6" fill-rule="evenodd" clip-rule="evenodd" d="M12.0187 8.09668L10.341 11.745L10.1623 11.0036C9.85006 10.1488 8.87701 9.22289 7.78906 8.75935L9.32307 13.4382L11.1361 13.4365L13.8338 8.09668H12.0187" fill="var(--fill-0, #00579F)"/>
<path id="Fill 8" fill-rule="evenodd" clip-rule="evenodd" d="M8.78501 8.09381H6.02192L6 8.20511C8.14975 8.64795 9.57212 9.7182 10.1626 11.004L9.56177 8.54546C9.45796 8.20675 9.15713 8.1056 8.78501 8.09381" fill="var(--fill-0, #F9A51A)"/>
<path id="Fill 1" fill-rule="evenodd" clip-rule="evenodd" d="M14.5284 8.09326L13.457 13.4434H15.1699L16.2419 8.09326H14.5284Z" fill="var(--fill-0, #00579F)"/>
<path id="Rectangle Copy 5" fill-rule="evenodd" clip-rule="evenodd" d="M0.000123293 2C0.000123293 0.89543 0.895554 0 2.00012 0H32.9999C34.1045 0 34.9999 0.89543 34.9999 2V6.2769H0.000123293V2Z" fill="var(--fill-0, #00579F)"/>
<path id="Rectangle Copy 6" fill-rule="evenodd" clip-rule="evenodd" d="M34.9998 19.2769C34.9998 20.3815 34.1044 21.2769 32.9998 21.2769L2 21.2769C0.895426 21.2769 0 20.3815 0 19.2769V15L34.9998 15V19.2769Z" fill="var(--fill-0, #F9A51A)"/>
</g>
</svg>
