<svg preserveAspectRatio="none" width="100%" height="100%" overflow="visible" style="display: block;" viewBox="0 0 18.9162 19.6168" fill="none" xmlns="http://www.w3.org/2000/svg">
<g id="ri:instagram-fill">
<path id="Vector" d="M9.45796 1.63465C11.5994 1.63465 11.8666 1.64283 12.7068 1.6837C13.5462 1.72456 14.1176 1.86106 14.6205 2.06377C15.1407 2.27138 15.5789 2.55255 16.0171 3.00619C16.4179 3.41479 16.728 3.90905 16.9259 4.45456C17.1206 4.97523 17.253 5.56863 17.2924 6.43913C17.3295 7.31044 17.3397 7.58752 17.3397 9.80831C17.3397 12.0291 17.3318 12.3062 17.2924 13.1775C17.253 14.048 17.1206 14.6406 16.9259 15.162C16.7286 15.7079 16.4184 16.2022 16.0171 16.6104C15.623 17.0259 15.1465 17.3475 14.6205 17.5528C14.1184 17.7547 13.5462 17.892 12.7068 17.9329C11.8666 17.9713 11.5994 17.982 9.45796 17.982C7.31649 17.982 7.0493 17.9738 6.20911 17.9329C5.36971 17.892 4.79828 17.7547 4.29542 17.5528C3.76918 17.3481 3.2925 17.0264 2.89878 16.6104C2.49792 16.2019 2.18779 15.7076 1.99002 15.162C1.79455 14.6414 1.66292 14.048 1.62352 13.1775C1.58647 12.3062 1.57623 12.0291 1.57623 9.80831C1.57623 7.58752 1.58411 7.31044 1.62352 6.43913C1.66292 5.56781 1.79455 4.97604 1.99002 4.45456C2.18725 3.90871 2.49745 3.41432 2.89878 3.00619C3.29261 2.59034 3.76926 2.26871 4.29542 2.06377C4.79828 1.86106 5.36892 1.72456 6.20911 1.6837C7.0493 1.64528 7.31649 1.63465 9.45796 1.63465ZM9.45796 5.72148C8.41278 5.72148 7.4104 6.15205 6.67135 6.91848C5.93229 7.68491 5.51709 8.72441 5.51709 9.80831C5.51709 10.8922 5.93229 11.9317 6.67135 12.6981C7.4104 13.4646 8.41278 13.8951 9.45796 13.8951C10.5031 13.8951 11.5055 13.4646 12.2446 12.6981C12.9836 11.9317 13.3988 10.8922 13.3988 9.80831C13.3988 8.72441 12.9836 7.68491 12.2446 6.91848C11.5055 6.15205 10.5031 5.72148 9.45796 5.72148V5.72148ZM14.5811 5.51714C14.5811 5.24617 14.4773 4.98629 14.2925 4.79468C14.1078 4.60308 13.8572 4.49543 13.5959 4.49543C13.3346 4.49543 13.084 4.60308 12.8992 4.79468C12.7145 4.98629 12.6107 5.24617 12.6107 5.51714C12.6107 5.78811 12.7145 6.04799 12.8992 6.23959C13.084 6.4312 13.3346 6.53884 13.5959 6.53884C13.8572 6.53884 14.1078 6.4312 14.2925 6.23959C14.4773 6.04799 14.5811 5.78811 14.5811 5.51714ZM9.45796 7.35621C10.0851 7.35621 10.6865 7.61455 11.1299 8.07441C11.5734 8.53427 11.8225 9.15797 11.8225 9.80831C11.8225 10.4586 11.5734 11.0823 11.1299 11.5422C10.6865 12.0021 10.0851 12.2604 9.45796 12.2604C8.83085 12.2604 8.22943 12.0021 7.78599 11.5422C7.34256 11.0823 7.09344 10.4586 7.09344 9.80831C7.09344 9.15797 7.34256 8.53427 7.78599 8.07441C8.22943 7.61455 8.83085 7.35621 9.45796 7.35621V7.35621Z" fill="var(--fill-0, white)"/>
</g>
</svg>
