<svg preserveAspectRatio="none" width="100%" height="100%" overflow="visible" style="display: block;" viewBox="0 0 25.4906 24.5436" fill="none" xmlns="http://www.w3.org/2000/svg">
<g id="Group">
<path id="Vector" d="M8.82643 12.2716L11.4402 14.7765L16.6679 9.7668" stroke="var(--stroke-0, #222222)" stroke-width="2" stroke-linecap="round" stroke-linejoin="round"/>
<path id="Vector_2" d="M12.7453 1.00002C15.798 3.58825 19.7823 4.93584 23.854 4.75729C24.4468 6.6898 24.6282 8.71678 24.3874 10.7178C24.1466 12.7188 23.4885 14.653 22.4522 16.4055C21.416 18.1579 20.0227 19.6929 18.3551 20.9192C16.6876 22.1454 14.7799 23.0379 12.7453 23.5436C10.7108 23.0379 8.80302 22.1454 7.1355 20.9192C5.46798 19.6929 4.07469 18.1579 3.03842 16.4055C2.00216 14.653 1.34407 12.7188 1.10326 10.7178C0.862457 8.71678 1.04384 6.6898 1.63664 4.75729C5.70834 4.93584 9.69262 3.58825 12.7453 1.00002" stroke="var(--stroke-0, #222222)" stroke-width="2" stroke-linecap="round" stroke-linejoin="round"/>
</g>
</svg>
