<svg preserveAspectRatio="none" width="100%" height="100%" overflow="visible" style="display: block;" viewBox="0 0 22.8616 22.0225" fill="none" xmlns="http://www.w3.org/2000/svg">
<g id="Group">
<path id="Vector" d="M3.60756 21.0225C5.04768 21.0225 6.21512 20.0265 6.21512 18.7977C6.21512 17.569 5.04768 16.5729 3.60756 16.5729C2.16744 16.5729 1 17.569 1 18.7977C1 20.0265 2.16744 21.0225 3.60756 21.0225Z" stroke="var(--stroke-0, #222222)" stroke-width="2" stroke-linecap="round" stroke-linejoin="round"/>
<path id="Vector_2" d="M17.9479 21.0225C19.388 21.0225 20.5554 20.0265 20.5554 18.7977C20.5554 17.569 19.388 16.5729 17.9479 16.5729C16.5077 16.5729 15.3403 17.569 15.3403 18.7977C15.3403 20.0265 16.5077 21.0225 17.9479 21.0225Z" stroke="var(--stroke-0, #222222)" stroke-width="2" stroke-linecap="round" stroke-linejoin="round"/>
<path id="Vector_3" d="M17.9492 16.5727H3.60757V1H1" stroke="var(--stroke-0, #222222)" stroke-width="2" stroke-linecap="round" stroke-linejoin="round"/>
<path id="Vector_4" d="M3.60861 3.22453L21.8615 4.33681L20.5578 12.1228H3.60861" stroke="var(--stroke-0, #222222)" stroke-width="2" stroke-linecap="round" stroke-linejoin="round"/>
</g>
</svg>
